<svg xmlns="http://www.w3.org/2000/svg" xmlns:xlink="http://www.w3.org/1999/xlink" width="500" zoomAndPan="magnify" viewBox="0 0 375 374.999991" height="500" preserveAspectRatio="xMidYMid meet" version="1.2"><defs><clipPath id="cf2668021b"><path d="M 187.5 0 C 83.945312 0 0 83.945312 0 187.5 C 0 291.054688 83.945312 375 187.5 375 C 291.054688 375 375 291.054688 375 187.5 C 375 83.945312 291.054688 0 187.5 0 Z M 187.5 0 "/></clipPath></defs><g id="d142806957"><g clip-rule="nonzero" clip-path="url(#cf2668021b)"><rect x="0" width="375" y="0" height="374.999991" style="fill:#8b5cf6;fill-opacity:1;stroke:none;"/></g><g style="fill:#ffffff;fill-opacity:1;"><g transform="translate(65.484375, 277.124982)"><path style="stroke:none" d="M 75.375 -75.125 L 55.3125 -53.515625 L 55.3125 0 L 16.71875 0 L 16.71875 -187.296875 L 55.3125 -187.296875 L 55.3125 -102.390625 L 72.296875 -125.6875 L 120.015625 -187.296875 L 167.484375 -187.296875 L 100.984375 -104.0625 L 169.421875 0 L 123.5 0 Z M 75.375 -75.125 "/></g><g transform="translate(232.714951, 277.124982)"><path style="stroke:none" d="M 57.765625 0 L 19.171875 0 L 19.171875 -187.296875 L 57.765625 -187.296875 Z M 57.765625 0 "/></g></g></g></svg>