<svg xmlns="http://www.w3.org/2000/svg" xmlns:xlink="http://www.w3.org/1999/xlink" width="500" zoomAndPan="magnify" viewBox="0 0 375 374.999991" height="500" preserveAspectRatio="xMidYMid meet" version="1.2"><defs><clipPath id="2d007da917"><path d="M 47.25 0 L 327.75 0 C 340.28125 0 352.300781 4.976562 361.160156 13.839844 C 370.023438 22.699219 375 34.71875 375 47.25 L 375 327.75 C 375 353.84375 353.84375 375 327.75 375 L 47.25 375 C 34.71875 375 22.699219 370.023438 13.839844 361.160156 C 4.976562 352.300781 0 340.28125 0 327.75 L 0 47.25 C 0 21.15625 21.15625 0 47.25 0 Z M 47.25 0 "/></clipPath><clipPath id="1cae991793"><path d="M 72.304688 42 L 145 42 L 145 332 L 72.304688 332 Z M 72.304688 42 "/></clipPath></defs><g id="f19a6ed057"><g clip-rule="nonzero" clip-path="url(#2d007da917)"><rect x="0" width="375" y="0" height="374.999991" style="fill:#8b5cf6;fill-opacity:1;stroke:none;"/></g><path style=" stroke:none;fill-rule:evenodd;fill:#ffffff;fill-opacity:1;" d="M 243.738281 199.039062 L 274.054688 229.363281 C 274.210938 229.511719 274.367188 229.664062 274.515625 229.824219 C 275.347656 230.664062 276.15625 231.523438 276.945312 232.398438 C 277.734375 233.277344 278.5 234.175781 279.246094 235.089844 C 279.992188 236.003906 280.710938 236.9375 281.410156 237.886719 C 282.109375 238.839844 282.785156 239.804688 283.4375 240.789062 C 284.089844 241.773438 284.71875 242.773438 285.320312 243.789062 C 285.921875 244.800781 286.5 245.832031 287.050781 246.875 C 287.605469 247.917969 288.132812 248.972656 288.632812 250.039062 C 289.132812 251.109375 289.609375 252.1875 290.054688 253.28125 C 290.503906 254.371094 290.925781 255.476562 291.316406 256.585938 C 291.710938 257.699219 292.078125 258.820312 292.417969 259.949219 C 292.757812 261.082031 293.066406 262.21875 293.351562 263.363281 C 293.632812 264.511719 293.890625 265.664062 294.117188 266.820312 C 294.34375 267.976562 294.542969 269.140625 294.710938 270.308594 C 294.882812 271.476562 295.023438 272.648438 295.136719 273.824219 C 295.25 274.996094 295.332031 276.175781 295.386719 277.351562 C 295.441406 278.53125 295.46875 279.710938 295.464844 280.890625 C 295.464844 282.070312 295.433594 283.25 295.371094 284.429688 C 295.3125 285.605469 295.222656 286.785156 295.105469 287.957031 C 294.988281 289.132812 294.839844 290.300781 294.664062 291.46875 C 294.488281 292.636719 294.285156 293.796875 294.054688 294.957031 C 293.820312 296.113281 293.5625 297.261719 293.273438 298.40625 C 292.984375 299.550781 292.667969 300.6875 292.324219 301.816406 C 291.980469 302.945312 291.609375 304.066406 291.210938 305.175781 C 290.8125 306.285156 290.386719 307.386719 289.933594 308.476562 C 289.480469 309.566406 289 310.644531 288.496094 311.710938 C 287.988281 312.777344 287.457031 313.832031 286.902344 314.871094 C 286.34375 315.910156 285.761719 316.9375 285.15625 317.949219 C 284.546875 318.960938 283.914062 319.957031 283.257812 320.9375 C 282.601562 321.917969 281.921875 322.882812 281.21875 323.832031 C 280.515625 324.777344 279.792969 325.707031 279.042969 326.621094 C 278.292969 327.53125 277.523438 328.425781 276.730469 329.300781 C 275.9375 330.171875 275.125 331.027344 274.289062 331.863281 L 192.601562 250.175781 Z M 243.738281 199.039062 "/><path style=" stroke:none;fill-rule:evenodd;fill:#ffffff;fill-opacity:1;" d="M 181.085938 135.785156 L 274.28125 42.589844 C 275.121094 43.425781 275.9375 44.28125 276.734375 45.15625 C 277.53125 46.035156 278.304688 46.929688 279.054688 47.84375 C 279.808594 48.757812 280.539062 49.691406 281.242188 50.640625 C 281.949219 51.589844 282.632812 52.558594 283.289062 53.542969 C 283.949219 54.527344 284.582031 55.523438 285.191406 56.539062 C 285.800781 57.554688 286.386719 58.585938 286.945312 59.628906 C 287.503906 60.671875 288.035156 61.726562 288.542969 62.796875 C 289.050781 63.867188 289.53125 64.949219 289.984375 66.042969 C 290.4375 67.136719 290.863281 68.242188 291.265625 69.355469 C 291.664062 70.46875 292.035156 71.59375 292.378906 72.726562 C 292.722656 73.859375 293.039062 75 293.328125 76.148438 C 293.617188 77.296875 293.875 78.449219 294.105469 79.613281 C 294.339844 80.773438 294.542969 81.9375 294.714844 83.109375 C 294.890625 84.28125 295.035156 85.457031 295.148438 86.632812 C 295.265625 87.8125 295.355469 88.992188 295.410156 90.175781 C 295.46875 91.359375 295.5 92.539062 295.5 93.722656 C 295.5 94.910156 295.46875 96.089844 295.410156 97.273438 C 295.355469 98.457031 295.265625 99.636719 295.148438 100.816406 C 295.035156 101.992188 294.890625 103.167969 294.714844 104.339844 C 294.542969 105.511719 294.339844 106.675781 294.105469 107.835938 C 293.875 109 293.617188 110.152344 293.328125 111.300781 C 293.039062 112.449219 292.722656 113.589844 292.378906 114.722656 C 292.035156 115.855469 291.664062 116.980469 291.265625 118.09375 C 290.863281 119.207031 290.4375 120.3125 289.984375 121.40625 C 289.53125 122.5 289.050781 123.582031 288.542969 124.652344 C 288.035156 125.722656 287.503906 126.777344 286.945312 127.820312 C 286.386719 128.863281 285.800781 129.894531 285.191406 130.910156 C 284.582031 131.925781 283.949219 132.921875 283.289062 133.90625 C 282.632812 134.890625 281.949219 135.859375 281.242188 136.808594 C 280.539062 137.757812 279.808594 138.691406 279.054688 139.605469 C 278.304688 140.519531 277.53125 141.414062 276.734375 142.292969 C 275.9375 143.167969 275.121094 144.023438 274.28125 144.859375 L 231.921875 187.230469 L 180.792969 238.363281 C 177.457031 235.039062 174.472656 231.417969 171.847656 227.503906 C 169.222656 223.59375 167 219.460938 165.183594 215.113281 C 163.367188 210.765625 161.992188 206.28125 161.054688 201.664062 C 160.117188 197.046875 159.636719 192.382812 159.617188 187.667969 L 159.617188 187.230469 C 159.613281 183.523438 159.894531 179.84375 160.457031 176.183594 C 161.023438 172.523438 161.863281 168.925781 162.984375 165.394531 C 164.101562 161.863281 165.484375 158.441406 167.132812 155.121094 C 168.78125 151.804688 170.671875 148.632812 172.808594 145.609375 C 175.296875 142.089844 178.070312 138.816406 181.128906 135.785156 "/><g clip-rule="nonzero" clip-path="url(#1cae991793)"><path style=" stroke:none;fill-rule:evenodd;fill:#ffffff;fill-opacity:1;" d="M 144.625 42.589844 L 144.625 259.5625 C 144.625 260.746094 144.597656 261.929688 144.539062 263.113281 C 144.480469 264.292969 144.390625 265.472656 144.277344 266.652344 C 144.160156 267.828125 144.015625 269.003906 143.839844 270.175781 C 143.667969 271.34375 143.464844 272.511719 143.234375 273.671875 C 143.003906 274.832031 142.742188 275.984375 142.457031 277.132812 C 142.167969 278.28125 141.851562 279.421875 141.507812 280.554688 C 141.164062 281.6875 140.792969 282.808594 140.394531 283.925781 C 139.996094 285.039062 139.570312 286.140625 139.117188 287.234375 C 138.664062 288.328125 138.183594 289.410156 137.679688 290.480469 C 137.171875 291.550781 136.640625 292.605469 136.082031 293.648438 C 135.523438 294.695312 134.941406 295.722656 134.332031 296.738281 C 133.726562 297.753906 133.089844 298.753906 132.433594 299.734375 C 131.777344 300.71875 131.09375 301.6875 130.390625 302.636719 C 129.683594 303.589844 128.957031 304.519531 128.207031 305.433594 C 127.457031 306.351562 126.683594 307.246094 125.886719 308.121094 C 125.09375 309 124.277344 309.855469 123.441406 310.691406 C 122.601562 311.527344 121.746094 312.34375 120.867188 313.140625 C 119.992188 313.933594 119.097656 314.707031 118.179688 315.457031 C 117.265625 316.207031 116.332031 316.933594 115.382812 317.640625 C 114.433594 318.34375 113.464844 319.027344 112.480469 319.683594 C 111.496094 320.339844 110.496094 320.972656 109.480469 321.582031 C 108.464844 322.191406 107.4375 322.773438 106.394531 323.332031 C 105.351562 323.886719 104.292969 324.421875 103.222656 324.925781 C 102.152344 325.433594 101.070312 325.910156 99.976562 326.363281 C 98.882812 326.816406 97.78125 327.242188 96.667969 327.640625 C 95.550781 328.039062 94.429688 328.410156 93.296875 328.753906 C 92.164062 329.097656 91.023438 329.410156 89.875 329.699219 C 88.726562 329.984375 87.574219 330.246094 86.414062 330.476562 C 85.25 330.707031 84.085938 330.910156 82.914062 331.082031 C 81.746094 331.253906 80.570312 331.398438 79.394531 331.515625 C 78.214844 331.632812 77.035156 331.71875 75.851562 331.777344 C 74.671875 331.835938 73.488281 331.863281 72.304688 331.863281 L 72.304688 114.910156 C 72.304688 113.726562 72.335938 112.542969 72.390625 111.359375 C 72.449219 110.179688 72.539062 109 72.652344 107.820312 C 72.769531 106.640625 72.914062 105.46875 73.085938 104.296875 C 73.261719 103.125 73.464844 101.960938 73.695312 100.800781 C 73.925781 99.640625 74.183594 98.484375 74.472656 97.335938 C 74.761719 96.1875 75.074219 95.046875 75.417969 93.914062 C 75.761719 92.78125 76.132812 91.660156 76.53125 90.546875 C 76.929688 89.429688 77.355469 88.328125 77.808594 87.234375 C 78.261719 86.140625 78.742188 85.058594 79.25 83.988281 C 79.753906 82.917969 80.285156 81.859375 80.84375 80.816406 C 81.402344 79.773438 81.984375 78.746094 82.59375 77.730469 C 83.203125 76.714844 83.835938 75.714844 84.492188 74.730469 C 85.152344 73.746094 85.832031 72.777344 86.535156 71.828125 C 87.242188 70.878906 87.96875 69.945312 88.722656 69.03125 C 89.472656 68.113281 90.246094 67.21875 91.039062 66.339844 C 91.835938 65.464844 92.648438 64.609375 93.488281 63.769531 C 94.324219 62.933594 95.179688 62.117188 96.058594 61.324219 C 96.933594 60.527344 97.832031 59.753906 98.746094 59.003906 C 99.660156 58.253906 100.59375 57.527344 101.542969 56.820312 C 102.496094 56.117188 103.460938 55.433594 104.445312 54.777344 C 105.429688 54.121094 106.429688 53.484375 107.445312 52.878906 C 108.460938 52.269531 109.488281 51.6875 110.535156 51.128906 C 111.578125 50.570312 112.632812 50.039062 113.703125 49.53125 C 114.773438 49.027344 115.855469 48.546875 116.949219 48.09375 C 118.042969 47.640625 119.148438 47.214844 120.261719 46.816406 C 121.375 46.417969 122.5 46.046875 123.632812 45.703125 C 124.765625 45.359375 125.90625 45.042969 127.054688 44.757812 C 128.199219 44.46875 129.355469 44.210938 130.515625 43.976562 C 131.675781 43.746094 132.84375 43.546875 134.015625 43.371094 C 135.183594 43.199219 136.359375 43.054688 137.535156 42.9375 C 138.714844 42.820312 139.894531 42.734375 141.078125 42.675781 C 142.257812 42.617188 143.441406 42.589844 144.625 42.589844 "/></g></g></svg>