<svg xmlns="http://www.w3.org/2000/svg" xmlns:xlink="http://www.w3.org/1999/xlink" width="500" zoomAndPan="magnify" viewBox="0 0 375 374.999991" height="500" preserveAspectRatio="xMidYMid meet" version="1.2"><defs><clipPath id="79cb91153c"><path d="M 187.5 0 C 83.945312 0 0 83.945312 0 187.5 C 0 291.054688 83.945312 375 187.5 375 C 291.054688 375 375 291.054688 375 187.5 C 375 83.945312 291.054688 0 187.5 0 Z M 187.5 0 "/></clipPath><clipPath id="563d6fb4dd"><path d="M 86.144531 59 L 150 59 L 150 315 L 86.144531 315 Z M 86.144531 59 "/></clipPath></defs><g id="e805d95d02"><g clip-rule="nonzero" clip-path="url(#79cb91153c)"><rect x="0" width="375" y="0" height="374.999991" style="fill:#8b5cf6;fill-opacity:1;stroke:none;"/></g><path style=" stroke:none;fill-rule:evenodd;fill:#ffffff;fill-opacity:1;" d="M 236.96875 197.636719 L 263.640625 224.316406 C 263.777344 224.445312 263.914062 224.582031 264.046875 224.722656 C 265.511719 226.199219 266.898438 227.742188 268.207031 229.355469 C 269.519531 230.964844 270.75 232.636719 271.894531 234.371094 C 273.042969 236.101562 274.101562 237.886719 275.074219 239.722656 C 276.046875 241.558594 276.929688 243.4375 277.71875 245.359375 C 278.507812 247.28125 279.199219 249.238281 279.796875 251.226562 C 280.394531 253.21875 280.890625 255.230469 281.289062 257.269531 C 281.691406 259.308594 281.988281 261.363281 282.1875 263.429688 C 282.386719 265.5 282.484375 267.570312 282.476562 269.648438 C 282.472656 271.726562 282.367188 273.800781 282.160156 275.867188 C 281.953125 277.933594 281.644531 279.984375 281.234375 282.023438 C 280.828125 284.058594 280.320312 286.074219 279.714844 288.058594 C 279.109375 290.046875 278.40625 292 277.609375 293.917969 C 276.8125 295.835938 275.921875 297.710938 274.941406 299.542969 C 273.960938 301.375 272.894531 303.15625 271.738281 304.882812 C 270.582031 306.609375 269.347656 308.273438 268.027344 309.878906 C 266.710938 311.488281 265.316406 313.023438 263.847656 314.492188 L 191.980469 242.625 Z M 236.96875 197.636719 "/><path style=" stroke:none;fill-rule:evenodd;fill:#ffffff;fill-opacity:1;" d="M 181.847656 141.988281 L 263.839844 59.996094 C 264.578125 60.730469 265.296875 61.484375 265.996094 62.253906 C 266.699219 63.027344 267.378906 63.8125 268.039062 64.617188 C 268.703125 65.421875 269.34375 66.242188 269.964844 67.078125 C 270.585938 67.914062 271.1875 68.765625 271.765625 69.632812 C 272.34375 70.496094 272.902344 71.375 273.4375 72.269531 C 273.976562 73.160156 274.488281 74.066406 274.980469 74.984375 C 275.472656 75.902344 275.941406 76.832031 276.386719 77.773438 C 276.832031 78.714844 277.257812 79.667969 277.65625 80.628906 C 278.054688 81.59375 278.429688 82.5625 278.78125 83.542969 C 279.132812 84.523438 279.460938 85.511719 279.761719 86.507812 C 280.066406 87.507812 280.34375 88.507812 280.597656 89.519531 C 280.851562 90.53125 281.078125 91.546875 281.28125 92.566406 C 281.484375 93.589844 281.664062 94.613281 281.816406 95.644531 C 281.96875 96.675781 282.097656 97.707031 282.199219 98.746094 C 282.300781 99.78125 282.378906 100.820312 282.429688 101.859375 C 282.480469 102.902344 282.507812 103.941406 282.507812 104.984375 C 282.507812 106.023438 282.480469 107.066406 282.429688 108.105469 C 282.378906 109.144531 282.300781 110.183594 282.199219 111.222656 C 282.097656 112.257812 281.96875 113.292969 281.816406 114.320312 C 281.664062 115.351562 281.484375 116.378906 281.28125 117.398438 C 281.078125 118.421875 280.851562 119.4375 280.597656 120.445312 C 280.34375 121.457031 280.066406 122.460938 279.761719 123.457031 C 279.460938 124.453125 279.132812 125.441406 278.78125 126.421875 C 278.429688 127.402344 278.054688 128.375 277.65625 129.335938 C 277.257812 130.300781 276.832031 131.25 276.386719 132.191406 C 275.941406 133.132812 275.472656 134.0625 274.980469 134.980469 C 274.488281 135.898438 273.976562 136.804688 273.4375 137.699219 C 272.902344 138.589844 272.34375 139.46875 271.765625 140.335938 C 271.1875 141.203125 270.585938 142.050781 269.964844 142.886719 C 269.34375 143.722656 268.703125 144.542969 268.039062 145.347656 C 267.378906 146.152344 266.699219 146.941406 265.996094 147.710938 C 265.296875 148.484375 264.578125 149.234375 263.839844 149.972656 L 226.570312 187.246094 L 181.589844 232.234375 C 178.65625 229.308594 176.03125 226.125 173.71875 222.679688 C 171.410156 219.238281 169.453125 215.605469 167.855469 211.78125 C 166.257812 207.953125 165.046875 204.011719 164.222656 199.949219 C 163.398438 195.882812 162.976562 191.78125 162.957031 187.632812 L 162.957031 187.246094 C 162.957031 183.988281 163.203125 180.75 163.699219 177.527344 C 164.195312 174.308594 164.9375 171.144531 165.921875 168.039062 C 166.90625 164.929688 168.125 161.917969 169.574219 159 C 171.023438 156.082031 172.6875 153.292969 174.566406 150.628906 C 176.753906 147.535156 179.195312 144.652344 181.886719 141.988281 "/><g clip-rule="nonzero" clip-path="url(#563d6fb4dd)"><path style=" stroke:none;fill-rule:evenodd;fill:#ffffff;fill-opacity:1;" d="M 149.769531 59.996094 L 149.769531 250.886719 C 149.769531 251.925781 149.746094 252.96875 149.695312 254.007812 C 149.640625 255.046875 149.566406 256.085938 149.464844 257.121094 C 149.359375 258.15625 149.234375 259.191406 149.082031 260.222656 C 148.929688 261.25 148.75 262.277344 148.546875 263.296875 C 148.34375 264.320312 148.117188 265.335938 147.863281 266.34375 C 147.609375 267.355469 147.332031 268.355469 147.027344 269.351562 C 146.726562 270.351562 146.398438 271.339844 146.050781 272.316406 C 145.699219 273.296875 145.324219 274.269531 144.925781 275.230469 C 144.527344 276.191406 144.105469 277.144531 143.660156 278.085938 C 143.214844 279.027344 142.746094 279.957031 142.253906 280.875 C 141.765625 281.792969 141.25 282.699219 140.714844 283.589844 C 140.179688 284.484375 139.625 285.363281 139.042969 286.230469 C 138.464844 287.09375 137.867188 287.945312 137.246094 288.78125 C 136.625 289.617188 135.984375 290.4375 135.324219 291.242188 C 134.664062 292.046875 133.984375 292.835938 133.285156 293.605469 C 132.585938 294.378906 131.867188 295.132812 131.132812 295.867188 C 130.394531 296.605469 129.640625 297.320312 128.871094 298.019531 C 128.097656 298.71875 127.308594 299.398438 126.503906 300.058594 C 125.699219 300.71875 124.878906 301.359375 124.042969 301.980469 C 123.207031 302.601562 122.355469 303.199219 121.488281 303.777344 C 120.625 304.355469 119.746094 304.914062 118.851562 305.449219 C 117.957031 305.984375 117.054688 306.496094 116.132812 306.988281 C 115.214844 307.476562 114.285156 307.945312 113.34375 308.390625 C 112.402344 308.835938 111.453125 309.257812 110.492188 309.65625 C 109.527344 310.054688 108.558594 310.429688 107.578125 310.777344 C 106.597656 311.128906 105.609375 311.457031 104.613281 311.757812 C 103.617188 312.058594 102.613281 312.335938 101.601562 312.589844 C 100.59375 312.84375 99.578125 313.070312 98.554688 313.273438 C 97.535156 313.476562 96.507812 313.652344 95.480469 313.808594 C 94.449219 313.960938 93.414062 314.085938 92.378906 314.1875 C 91.34375 314.289062 90.304688 314.367188 89.265625 314.417969 C 88.226562 314.46875 87.183594 314.492188 86.144531 314.492188 L 86.144531 123.621094 C 86.144531 122.578125 86.167969 121.539062 86.222656 120.5 C 86.273438 119.460938 86.347656 118.421875 86.449219 117.382812 C 86.550781 116.347656 86.679688 115.316406 86.832031 114.285156 C 86.984375 113.253906 87.164062 112.230469 87.367188 111.207031 C 87.570312 110.1875 87.796875 109.171875 88.050781 108.160156 C 88.304688 107.152344 88.582031 106.148438 88.882812 105.152344 C 89.1875 104.15625 89.511719 103.167969 89.863281 102.1875 C 90.214844 101.207031 90.589844 100.234375 90.988281 99.273438 C 91.386719 98.308594 91.808594 97.359375 92.253906 96.417969 C 92.699219 95.476562 93.167969 94.546875 93.65625 93.628906 C 94.148438 92.710938 94.660156 91.804688 95.195312 90.910156 C 95.730469 90.015625 96.289062 89.136719 96.867188 88.273438 C 97.445312 87.40625 98.046875 86.554688 98.664062 85.71875 C 99.285156 84.882812 99.925781 84.0625 100.585938 83.257812 C 101.246094 82.453125 101.925781 81.664062 102.625 80.890625 C 103.324219 80.121094 104.042969 79.367188 104.78125 78.628906 C 105.515625 77.894531 106.269531 77.175781 107.042969 76.476562 C 107.8125 75.777344 108.601562 75.097656 109.40625 74.4375 C 110.210938 73.777344 111.03125 73.136719 111.867188 72.515625 C 112.703125 71.894531 113.554688 71.296875 114.421875 70.71875 C 115.289062 70.140625 116.167969 69.582031 117.058594 69.046875 C 117.953125 68.511719 118.859375 68 119.777344 67.507812 C 120.695312 67.015625 121.625 66.546875 122.566406 66.105469 C 123.507812 65.660156 124.460938 65.238281 125.421875 64.839844 C 126.382812 64.441406 127.355469 64.066406 128.335938 63.714844 C 129.316406 63.363281 130.304688 63.035156 131.300781 62.734375 C 132.296875 62.433594 133.300781 62.15625 134.308594 61.902344 C 135.320312 61.648438 136.335938 61.421875 137.359375 61.21875 C 138.378906 61.015625 139.40625 60.835938 140.433594 60.683594 C 141.464844 60.53125 142.496094 60.402344 143.535156 60.300781 C 144.570312 60.199219 145.609375 60.121094 146.648438 60.070312 C 147.6875 60.019531 148.730469 59.996094 149.769531 59.996094 "/></g></g></svg>